# Blender 3.3.1
# www.blender.org
mtllib coin.mtl
o Cube
v 0.986411 0.448218 0.186083
v 1.099234 -1.044348 0.024633
v 1.229224 0.580118 1.274390
v 1.262534 -0.997875 1.223064
v -2.653234 0.530983 -3.237579
v -2.918402 -0.780620 -3.505359
v -2.725792 0.589419 1.358517
v -2.808886 -0.869027 1.353598
vn 0.0272 0.9990 -0.0343
vn 0.0264 -0.0189 0.9995
vn -0.9922 0.1243 0.0043
vn -0.0465 -0.9989 -0.0048
vn 0.9821 0.0591 -0.1790
vn 0.6722 0.0762 -0.7364
vt 0.625000 0.500000
vt 0.375000 0.500000
vt 0.625000 0.750000
vt 0.375000 0.750000
vt 0.875000 0.500000
vt 0.625000 0.250000
vt 0.125000 0.500000
vt 0.375000 0.250000
vt 0.875000 0.750000
vt 0.625000 1.000000
vt 0.625000 0.000000
vt 0.375000 1.000000
vt 0.375000 0.000000
vt 0.125000 0.750000
s 0
usemtl Material
f 1/1/1 5/5/1 7/9/1 3/3/1
f 4/4/2 3/3/2 7/10/2 8/12/2
f 8/13/3 7/11/3 5/6/3 6/8/3
f 6/7/4 2/2/4 4/4/4 8/14/4
f 2/2/5 1/1/5 3/3/5 4/4/5
f 6/8/6 5/6/6 1/1/6 2/2/6
